{
    "streams": [
        {
            "index": 0,
            "codec_name": "aac",
            "codec_long_name": "AAC (Advanced Audio Coding)",
            "profile": "LC",
            "codec_type": "audio",
            "codec_tag_string": "mp4a",
            "codec_tag": "0x6134706d",
            "sample_fmt": "fltp",
            "sample_rate": "44100",
            "channels": 2,
            "channel_layout": "stereo",
            "bits_per_sample": 0,
            "initial_padding": 0,
            "id": "0x1",
            "r_frame_rate": "0/0",
            "avg_frame_rate": "0/0",
            "time_base": "1/44100",
            "start_pts": 0,
            "start_time": "0.000000",
            "duration_ts": 125685,
            "duration": "2.850000",
            "bit_rate": "139378",
            "nb_frames": "125",
            "extradata_size": 2,
            "disposition": {
                "default": 1,
                "dub": 0,
                "original": 0,
                "comment": 0,
                "lyrics": 0,
                "karaoke": 0,
                "forced": 0,
                "hearing_impaired": 0,
                "visual_impaired": 0,
                "clean_effects": 0,
                "attached_pic": 0,
                "timed_thumbnails": 0,
                "non_diegetic": 0,
                "captions": 0,
                "descriptions": 0,
                "metadata": 0,
                "dependent": 0,
                "still_image": 0,
                "multilayer": 0
            },
            "tags": {
                "creation_time": "2025-10-18T23:25:06.000000Z",
                "language": "und",
                "handler_name": "Core Media Audio",
                "vendor_id": "[0][0][0][0]"
            }
        },
        {
            "index": 1,
            "codec_name": "hevc",
            "codec_long_name": "H.265 / HEVC (High Efficiency Video Coding)",
            "profile": "Main 10",
            "codec_type": "video",
            "codec_tag_string": "hvc1",
            "codec_tag": "0x31637668",
            "width": 1280,
            "height": 720,
            "coded_width": 1280,
            "coded_height": 720,
            "has_b_frames": 2,
            "pix_fmt": "yuv420p10le",
            "level": 93,
            "color_range": "tv",
            "color_space": "bt2020nc",
            "color_transfer": "arib-std-b67",
            "color_primaries": "bt2020",
            "chroma_location": "left",
            "refs": 1,
            "view_ids_available": "",
            "view_pos_available": "",
            "id": "0x2",
            "r_frame_rate": "30/1",
            "avg_frame_rate": "30/1",
            "time_base": "1/600",
            "start_pts": 0,
            "start_time": "0.000000",
            "duration_ts": 1711,
            "duration": "2.851667",
            "bit_rate": "2257010",
            "nb_frames": "86",
            "extradata_size": 123,
            "disposition": {
                "default": 1,
                "dub": 0,
                "original": 0,
                "comment": 0,
                "lyrics": 0,
                "karaoke": 0,
                "forced": 0,
                "hearing_impaired": 0,
                "visual_impaired": 0,
                "clean_effects": 0,
                "attached_pic": 0,
                "timed_thumbnails": 0,
                "non_diegetic": 0,
                "captions": 0,
                "descriptions": 0,
                "metadata": 0,
                "dependent": 0,
                "still_image": 0,
                "multilayer": 0
            },
            "tags": {
                "creation_time": "2025-10-18T23:25:06.000000Z",
                "language": "und",
                "handler_name": "Core Media Video",
                "vendor_id": "[0][0][0][0]",
                "encoder": "HEVC"
            },
            "side_data_list": [
                {
                    "side_data_type": "DOVI configuration record",
                    "dv_version_major": 1,
                    "dv_version_minor": 0,
                    "dv_profile": 8,
                    "dv_level": 2,
                    "rpu_present_flag": 1,
                    "el_present_flag": 0,
                    "bl_present_flag": 1,
                    "dv_bl_signal_compatibility_id": 4,
                    "dv_md_compression": "none"
                },
                {
                    "side_data_type": "Display Matrix",
                    "displaymatrix": "\n00000000:            0       65536           0\n00000001:       -65536           0           0\n00000002:     47185920           0  1073741824\n",
                    "rotation": -90
                },
                {
                    "side_data_type": "Ambient viewing environment",
                    "ambient_illuminance": "3140000/10000",
                    "ambient_light_x": "15635/50000",
                    "ambient_light_y": "16450/50000"
                }
            ]
        },
        {
            "index": 2,
            "codec_type": "data",
            "codec_tag_string": "mebx",
            "codec_tag": "0x7862656d",
            "id": "0x3",
            "r_frame_rate": "0/0",
            "avg_frame_rate": "0/0",
            "time_base": "1/600",
            "start_pts": 0,
            "start_time": "0.000000",
            "duration_ts": 1711,
            "duration": "2.851667",
            "bit_rate": "28",
            "nb_frames": "1",
            "disposition": {
                "default": 1,
                "dub": 0,
                "original": 0,
                "comment": 0,
                "lyrics": 0,
                "karaoke": 0,
                "forced": 0,
                "hearing_impaired": 0,
                "visual_impaired": 0,
                "clean_effects": 0,
                "attached_pic": 0,
                "timed_thumbnails": 0,
                "non_diegetic": 0,
                "captions": 0,
                "descriptions": 0,
                "metadata": 0,
                "dependent": 0,
                "still_image": 0,
                "multilayer": 0
            },
            "tags": {
                "creation_time": "2025-10-18T23:25:06.000000Z",
                "language": "und",
                "handler_name": "Core Media Metadata"
            }
        },
        {
            "index": 3,
            "codec_type": "data",
            "codec_tag_string": "mebx",
            "codec_tag": "0x7862656d",
            "id": "0x4",
            "r_frame_rate": "0/0",
            "avg_frame_rate": "0/0",
            "time_base": "1/600",
            "start_pts": 0,
            "start_time": "0.000000",
            "duration_ts": 1711,
            "duration": "2.851667",
            "bit_rate": "22",
            "nb_frames": "1",
            "disposition": {
                "default": 1,
                "dub": 0,
                "original": 0,
                "comment": 0,
                "lyrics": 0,
                "karaoke": 0,
                "forced": 0,
                "hearing_impaired": 0,
                "visual_impaired": 0,
                "clean_effects": 0,
                "attached_pic": 0,
                "timed_thumbnails": 0,
                "non_diegetic": 0,
                "captions": 0,
                "descriptions": 0,
                "metadata": 0,
                "dependent": 0,
                "still_image": 0,
                "multilayer": 0
            },
            "tags": {
                "creation_time": "2025-10-18T23:25:06.000000Z",
                "language": "und",
                "handler_name": "Core Media Metadata"
            }
        },
        {
            "index": 4,
            "codec_type": "data",
            "codec_tag_string": "mebx",
            "codec_tag": "0x7862656d",
            "id": "0x5",
            "r_frame_rate": "0/0",
            "avg_frame_rate": "0/0",
            "time_base": "1/600",
            "start_pts": 0,
            "start_time": "0.000000",
            "duration_ts": 1711,
            "duration": "2.851667",
            "bit_rate": "69079",
            "nb_frames": "171",
            "disposition": {
                "default": 1,
                "dub": 0,
                "original": 0,
                "comment": 0,
                "lyrics": 0,
                "karaoke": 0,
                "forced": 0,
                "hearing_impaired": 0,
                "visual_impaired": 0,
                "clean_effects": 0,
                "attached_pic": 0,
                "timed_thumbnails": 0,
                "non_diegetic": 0,
                "captions": 0,
                "descriptions": 0,
                "metadata": 0,
                "dependent": 0,
                "still_image": 0,
                "multilayer": 0
            },
            "tags": {
                "creation_time": "2025-10-18T23:25:06.000000Z",
                "language": "und",
                "handler_name": "Core Media Metadata"
            }
        },
        {
            "index": 5,
            "codec_type": "data",
            "codec_tag_string": "mebx",
            "codec_tag": "0x7862656d",
            "id": "0x6",
            "r_frame_rate": "0/0",
            "avg_frame_rate": "0/0",
            "time_base": "1/10000",
            "start_pts": 0,
            "start_time": "0.000000",
            "duration_ts": 28500,
            "duration": "2.850000",
            "bit_rate": "5760",
            "nb_frames": "171",
            "disposition": {
                "default": 1,
                "dub": 0,
                "original": 0,
                "comment": 0,
                "lyrics": 0,
                "karaoke": 0,
                "forced": 0,
                "hearing_impaired": 0,
                "visual_impaired": 0,
                "clean_effects": 0,
                "attached_pic": 0,
                "timed_thumbnails": 0,
                "non_diegetic": 0,
                "captions": 0,
                "descriptions": 0,
                "metadata": 0,
                "dependent": 0,
                "still_image": 0,
                "multilayer": 0
            },
            "tags": {
                "creation_time": "2025-10-18T23:25:06.000000Z",
                "language": "und",
                "handler_name": "Core Media Metadata"
            }
        },
        {
            "index": 6,
            "codec_type": "data",
            "codec_tag_string": "mebx",
            "codec_tag": "0x7862656d",
            "id": "0x7",
            "r_frame_rate": "0/0",
            "avg_frame_rate": "0/0",
            "time_base": "1/600",
            "start_pts": 0,
            "start_time": "0.000000",
            "duration_ts": 1711,
            "duration": "2.851667",
            "bit_rate": "123",
            "nb_frames": "1",
            "disposition": {
                "default": 1,
                "dub": 0,
                "original": 0,
                "comment": 0,
                "lyrics": 0,
                "karaoke": 0,
                "forced": 0,
                "hearing_impaired": 0,
                "visual_impaired": 0,
                "clean_effects": 0,
                "attached_pic": 0,
                "timed_thumbnails": 0,
                "non_diegetic": 0,
                "captions": 0,
                "descriptions": 0,
                "metadata": 0,
                "dependent": 0,
                "still_image": 0,
                "multilayer": 0
            },
            "tags": {
                "creation_time": "2025-10-18T23:25:06.000000Z",
                "language": "und",
                "handler_name": "Core Media Metadata"
            }
        }
    ],
    "format": {
        "filename": "/Users/marcusduggs/Desktop/Input/Golf.mov",
        "nb_streams": 7,
        "nb_programs": 0,
        "nb_stream_groups": 0,
        "format_name": "mov,mp4,m4a,3gp,3g2,mj2",
        "format_long_name": "QuickTime / MOV",
        "start_time": "0.000000",
        "duration": "2.851667",
        "size": "895624",
        "bit_rate": "2512562",
        "probe_score": 100,
        "tags": {
            "major_brand": "qt  ",
            "minor_version": "0",
            "compatible_brands": "qt  ",
            "creation_time": "2025-10-18T23:25:06.000000Z",
            "com.apple.quicktime.full-frame-rate-playback-intent": "0",
            "com.apple.quicktime.make": "Apple",
            "com.apple.quicktime.model": "iPhone 13 Pro Max",
            "com.apple.quicktime.software": "18.5",
            "com.apple.quicktime.creationdate": "2025-10-18T16:24:45-0700"
        }
    }
}
